<svg xmlns="http://www.w3.org/2000/svg" viewBox="0 0 128 128" role="img" aria-label="Ocean icon">
  <rect width="128" height="128" rx="20" fill="#e6dacb"/>
  <rect x="8" y="8" width="112" height="112" rx="15" fill="none" stroke="#cbbba8" stroke-width="2" opacity=".95"/>
  <g transform="rotate(-5 64 64)"><ellipse cx="64" cy="67" rx="44" ry="29" fill="#4f8582"/><path d="M23 67c20-22 47-22 80-1-20 7-36 19-54 19-12 0-20-6-26-18z" fill="#527a7f"/><path d="M44 58c14-13 32-11 52 2-17 2-29 10-42 11-8 0-12-5-10-13z" fill="#fffaf0" opacity=".93"/><circle cx="93" cy="47" r="6" fill="#a88443"/><path d="M31 87c21 10 50 11 70-5" fill="none" stroke="#27211d" stroke-width="7" stroke-linecap="round"/></g>
</svg>
