<svg xmlns="http://www.w3.org/2000/svg" viewBox="0 0 180 180" role="img" aria-label="Ocean tracker">
  <defs>
    <linearGradient id="ocean" x1="24" y1="22" x2="158" y2="164" gradientUnits="userSpaceOnUse">
      <stop offset="0" stop-color="#60a5fa"/>
      <stop offset="0.52" stop-color="#14b8a6"/>
      <stop offset="1" stop-color="#1d4ed8"/>
    </linearGradient>
  </defs>
  <rect width="180" height="180" rx="42" fill="#0f172a"/>
  <path d="M35 110c26 26 66 27 93 3 13-12 17-27 10-39-8-13-27-13-39 2-10 12-11 27-2 40 10 15 30 23 49 17" fill="none" stroke="url(#ocean)" stroke-width="18" stroke-linecap="round"/>
  <path d="M40 125c27 21 63 25 93 10" fill="none" stroke="#e0f2fe" stroke-width="10" stroke-linecap="round" opacity=".95"/>
  <path d="M76 78c15-22 38-33 67-34" fill="none" stroke="#99f6e4" stroke-width="10" stroke-linecap="round" opacity=".9"/>
  <circle cx="51" cy="76" r="8" fill="#f8fafc"/>
  <circle cx="127" cy="79" r="7" fill="#f8fafc"/>
</svg>
