<svg xmlns="http://www.w3.org/2000/svg" viewBox="0 0 128 128" role="img" aria-label="Ocean icon"><defs><filter id="depth" x="-40%" y="-40%" width="180%" height="180%"><feDropShadow dx="0" dy="8" stdDeviation="5" flood-color="#2b2118" flood-opacity=".22"/></filter><linearGradient id="soft" x1="18" x2="110" y1="18" y2="112" gradientUnits="userSpaceOnUse"><stop stop-color="#fffaf2"/><stop offset="1" stop-color="#e5d8ca"/></linearGradient><linearGradient id="warm" x1="20" x2="108" y1="20" y2="108" gradientUnits="userSpaceOnUse"><stop stop-color="#ddaaa2"/><stop offset="1" stop-color="#ad715e"/></linearGradient><linearGradient id="cool" x1="20" x2="108" y1="20" y2="108" gradientUnits="userSpaceOnUse"><stop stop-color="#7fa9a2"/><stop offset="1" stop-color="#456f77"/></linearGradient></defs><g filter="url(#depth)" transform="rotate(-5 64 64)"><ellipse cx="64" cy="67" rx="46" ry="30" fill="#6fa49e"/><path d="M21 67c21-23 49-23 84-1-21 8-38 20-56 20-13 0-21-7-28-19z" fill="#3f747c"/><path d="M44 58c15-13 34-11 54 2-18 2-30 11-44 12-9 0-13-5-10-14z" fill="#fff7ea"/><circle cx="94" cy="47" r="6" fill="#a7833c"/><path d="M30 88c22 11 52 12 73-5" fill="none" stroke="#241f1b" stroke-width="7" stroke-linecap="round"/></g></svg>