<svg xmlns="http://www.w3.org/2000/svg" viewBox="0 0 128 128" role="img" aria-label="Ocean tracker icon">
  <defs>
    <linearGradient id="ocean" x1="17" y1="16" x2="112" y2="116" gradientUnits="userSpaceOnUse">
      <stop offset="0" stop-color="#ffd0bd"/>
      <stop offset="0.52" stop-color="#ff8f7d"/>
      <stop offset="1" stop-color="#ff5f8f"/>
    </linearGradient>
  </defs>
  <rect width="128" height="128" rx="28" fill="#351923"/>
  <path d="M25 78c18 18 47 19 66 2 9-8 12-19 7-27-5-9-18-9-27 1-7 8-8 19-1 28 7 10 21 16 35 12" fill="none" stroke="url(#ocean)" stroke-width="13" stroke-linecap="round"/>
  <path d="M28 88c19 15 45 18 66 7" fill="none" stroke="#fff2ec" stroke-width="7" stroke-linecap="round" opacity=".96"/>
  <path d="M54 55c10-15 27-23 47-24" fill="none" stroke="#ffc3d0" stroke-width="7" stroke-linecap="round" opacity=".92"/>
  <circle cx="36" cy="54" r="6" fill="#fff8f5"/>
  <circle cx="90" cy="56" r="5" fill="#fff8f5"/>
</svg>
