<svg xmlns="http://www.w3.org/2000/svg" viewBox="0 0 128 128" role="img" aria-label="Ocean icon">
  <rect width="128" height="128" rx="20" fill="#f5efe6"/>
  <rect x="7" y="7" width="114" height="114" rx="15" fill="none" stroke="#d8cab8" stroke-width="1.2" opacity=".88"/>
  <g><g transform="rotate(-5 64 64)"><ellipse cx="64" cy="67" rx="43" ry="28" fill="#6e9c98"/><path d="M24 67c19-21 45-21 78-1-20 6-35 18-52 18-11 0-19-6-26-17z" fill="#5f8389"/><path d="M44 58c14-13 31-11 51 2-17 2-28 10-41 11-8 0-12-5-10-13z" fill="#f5efe6" opacity=".9"/><circle cx="92" cy="48" r="6" fill="#b99a60"/><path d="M31 86c21 10 48 11 68-4" fill="none" stroke="#2b2520" stroke-width="7" stroke-linecap="round"/></g></g>
</svg>
