<svg xmlns="http://www.w3.org/2000/svg" viewBox="0 0 180 180" role="img" aria-label="Ocean">
  <rect width="180" height="180" rx="42" fill="#ffd8c8"/>
  <path d="M34 108c26 26 66 27 93 3 14-12 18-30 10-42-9-14-30-13-43 4-12 14-12 32 0 46 14 17 39 25 62 13" fill="none" stroke="#251713" stroke-width="21" stroke-linecap="round"/>
  <path d="M34 108c26 26 66 27 93 3 14-12 18-30 10-42-9-14-30-13-43 4-12 14-12 32 0 46 14 17 39 25 62 13" fill="none" stroke="#2f9d98" stroke-width="13" stroke-linecap="round"/>
  <path d="M43 133c30 18 68 19 99 2" fill="none" stroke="#fffaf6" stroke-width="10" stroke-linecap="round"/>
  <circle cx="55" cy="78" r="8" fill="#fffaf6"/>
  <circle cx="124" cy="80" r="7" fill="#fffaf6"/>
</svg>
