<svg xmlns="http://www.w3.org/2000/svg" viewBox="0 0 128 128" role="img" aria-label="Ocean">
  <rect width="128" height="128" rx="30" fill="#ffd8c8"/>
  <path d="M24 76c18 18 47 19 66 2 10-9 13-21 7-30-6-10-21-9-31 3-8 10-8 23 0 33 9 12 27 17 42 10" fill="none" stroke="#251713" stroke-width="15" stroke-linecap="round"/>
  <path d="M24 76c18 18 47 19 66 2 10-9 13-21 7-30-6-10-21-9-31 3-8 10-8 23 0 33 9 12 27 17 42 10" fill="none" stroke="#2f9d98" stroke-width="9" stroke-linecap="round"/>
  <path d="M30 94c21 13 48 14 70 2" fill="none" stroke="#fffaf6" stroke-width="7" stroke-linecap="round"/>
  <circle cx="39" cy="55" r="6" fill="#fffaf6"/>
  <circle cx="88" cy="56" r="5" fill="#fffaf6"/>
</svg>
